<?xml version="1.0" encoding="UTF-8"?>
<svg id="b" data-name="Layer 2" xmlns="http://www.w3.org/2000/svg" viewBox="0 0 1401.99 708">
  <defs>
    <style>
      .d {
        fill: #fff;
      }
    </style>
  </defs>
  <g id="c" data-name="Layer 1">
    <g>
      <path class="d" d="M279,0h253l276,708h-259l-37-104h-225l-35,104H0L279,0ZM402,247l-58,175h115l-57-175Z"/>
      <path class="d" d="M1044.99,480v228h-237V0h304c36,0,71.33,3.84,106,11.5,34.66,7.67,65.66,20.67,93,39,27.33,18.34,49.33,42.67,66,73,16.66,30.34,25,68.5,25,114.5s-8.17,81.34-24.5,112c-16.34,30.67-38,55.67-65,75-27,19.34-58,33.34-93,42-35,8.67-70.84,13-107.5,13h-67ZM1044.99,185v114h50c18,0,34.5-4.5,49.5-13.5s22.5-24.16,22.5-45.5c0-11.33-2-20.5-6-27.5s-9.5-12.5-16.5-16.5-14.84-6.83-23.5-8.5c-8.67-1.66-17.34-2.5-26-2.5h-50Z"/>
    </g>
  </g>
</svg>